<mxfile host="app.diagrams.net" agent="Mozilla/5.0 (Macintosh; Intel Mac OS X 10_15_7) AppleWebKit/537.36 (KHTML, like Gecko) Chrome/133.0.0.0 Safari/537.36" version="26.0.14">
  <diagram name="페이지-1" id="aB2JLFKd2H44Wkz3XPcQ">
    <mxGraphModel dx="1920" dy="1901" grid="1" gridSize="10" guides="1" tooltips="1" connect="1" arrows="1" fold="1" page="1" pageScale="1" pageWidth="827" pageHeight="1169" math="0" shadow="0">
      <root>
        <mxCell id="0" />
        <mxCell id="1" parent="0" />
        <mxCell id="tzBu8eTOmP9HdtIuSJKp-6" value="AWS Cloud" style="points=[[0,0],[0.25,0],[0.5,0],[0.75,0],[1,0],[1,0.25],[1,0.5],[1,0.75],[1,1],[0.75,1],[0.5,1],[0.25,1],[0,1],[0,0.75],[0,0.5],[0,0.25]];outlineConnect=0;gradientColor=none;html=1;whiteSpace=wrap;fontSize=12;fontStyle=0;container=1;pointerEvents=0;collapsible=0;recursiveResize=0;shape=mxgraph.aws4.group;grIcon=mxgraph.aws4.group_aws_cloud_alt;strokeColor=#232F3E;fillColor=none;verticalAlign=top;align=left;spacingLeft=30;fontColor=#232F3E;dashed=0;" vertex="1" parent="1">
          <mxGeometry x="60" y="90" width="980" height="490" as="geometry" />
        </mxCell>
        <mxCell id="tzBu8eTOmP9HdtIuSJKp-9" value="EC2 instance contents" style="points=[[0,0],[0.25,0],[0.5,0],[0.75,0],[1,0],[1,0.25],[1,0.5],[1,0.75],[1,1],[0.75,1],[0.5,1],[0.25,1],[0,1],[0,0.75],[0,0.5],[0,0.25]];outlineConnect=0;gradientColor=none;html=1;whiteSpace=wrap;fontSize=12;fontStyle=0;container=1;pointerEvents=0;collapsible=0;recursiveResize=0;shape=mxgraph.aws4.group;grIcon=mxgraph.aws4.group_ec2_instance_contents;strokeColor=#D86613;fillColor=none;verticalAlign=top;align=left;spacingLeft=30;fontColor=#D86613;dashed=0;" vertex="1" parent="tzBu8eTOmP9HdtIuSJKp-6">
          <mxGeometry x="140" y="30" width="560" height="430" as="geometry" />
        </mxCell>
        <mxCell id="tzBu8eTOmP9HdtIuSJKp-21" value="" style="rounded=0;whiteSpace=wrap;html=1;fillColor=#fff2cc;strokeColor=#d6b656;" vertex="1" parent="tzBu8eTOmP9HdtIuSJKp-9">
          <mxGeometry x="247.5" y="217" width="290" height="190" as="geometry" />
        </mxCell>
        <mxCell id="tzBu8eTOmP9HdtIuSJKp-16" value="alamani-naver-modules" style="rounded=0;whiteSpace=wrap;html=1;" vertex="1" parent="tzBu8eTOmP9HdtIuSJKp-9">
          <mxGeometry x="267.5" y="317" width="220" height="60" as="geometry" />
        </mxCell>
        <mxCell id="tzBu8eTOmP9HdtIuSJKp-19" value="alamani-sender-batch" style="rounded=0;whiteSpace=wrap;html=1;" vertex="1" parent="tzBu8eTOmP9HdtIuSJKp-9">
          <mxGeometry x="267.5" y="242" width="220" height="60" as="geometry" />
        </mxCell>
        <mxCell id="tzBu8eTOmP9HdtIuSJKp-22" value="Batch Modules" style="text;html=1;align=center;verticalAlign=middle;whiteSpace=wrap;rounded=0;" vertex="1" parent="tzBu8eTOmP9HdtIuSJKp-9">
          <mxGeometry x="240" y="210" width="121" height="37" as="geometry" />
        </mxCell>
        <mxCell id="tzBu8eTOmP9HdtIuSJKp-41" value="" style="shape=image;verticalLabelPosition=bottom;labelBackgroundColor=default;verticalAlign=top;aspect=fixed;imageAspect=0;image=data:image/png,iVBORw0KGgoAAAANSUhEUgAAAOEAAADhCAMAAAAJbSJIAAAAgVBMVEX///9ssz5qsjtwtUPs9ub2+/JnsTVosThztkllsDJiryxksDD8/vtiry3+//3v9+vf7telz43D37TZ68/n8uF6ulLz+fDN5MCTxnV/vFrU6Mn4+/ady4OGwGOOxG6+3K6y1p6RxXOt05e22KTJ4rugzIeYyHy62qlcrSHC37KDv19eEpGZAAAIGklEQVR4nO2d53biOhCA1zJIlisYm95CTfL+D3jtJDegGVESLMnkzPdvzwmLx9Jouvj3jyAIgiAIgiAIgiAIgiAIgiAIgiAIgiAIgiAIgiAu0c1nrh/BLLkfBjvXD2GQaRkyj4WTgesHMUQxlsyrEXzecf0wBhiufe79jwy2f04dd0HEvBNMliPXj9Qog0V4Lt+HjOGy5/qxGqNzkMLDVOqYuX60RuhuPa6Rr4b7qz+gjqNJAjfo2VZNFlPXD/ggxfKKfB9bNRk/s+XI9q86BQQyvm6Grh/0l8yO/iUFVJHBW+z6YX9BOp3I6xv0BJOL53PkigOygFe3avJklmPWT+7boCe4XD/PVo3f2E/lq5H+LnX96PcxXdytgCpMPoUjl+ldtPuoHLm2W450y3+zQU9wcXQtw1VyTz4kn1c7cn570xy93yogkLGt6tjZi98roIpg/RZax+3jG/QM6bdNHUdqkuJxWFK2Ka7qLRqW70PG6KVwLdgXwz5rSgFVuNeKuCpeBU0qoAKTpXtHbnotSdGAjMnCreUolq8m5asRrwd3aY5sczGL1iTcX3edyBfnZSMuzG3qBLkDdewtfxTEPyhj+GJbHTuH0IyFuIQI9zYtR3cd2VBAFc6PthLk6a40ZgGvweTEjjr2lgZctPsQcmzekev2LSsgkDHcGN6qW2lfAVUkX5kUsMNcbdATzDdp/zt+CyQMSEKSkCR0DUlIEpKEJCFJSBKShCQhSUgSkoQkYSMSGs1idCfOMonfAkYLo/1v6Uo4yQZ/E3m5SflqZv3IXcKU842NBsbei6WqGkTwg6XehXTkpHAhJxb7T+L1jztkH5ZPWu4hGu4Tm+ooItP1Cg29W6MUzcESN81DaW5HHeu6oQv5aoabB/tl74ELm7OK6KuyseFyoghRX3Rq0iR28IGtGS1sDt2Q4mhismWh43FUZ47zwJAHUPfRwPXqLaXp+iFna7hXDTUncm8DZakUX5iPnpjEE/UG+tvYK+5KWPnSTnzIwhJpx6BsNK5iyQR/hf9hgO1EwIzPkToeG+wzlWUOO2eKMf/6bksxPveROmb9hpr1BUO9wd1TG6S1LEZ10CHL0XtvYKsyuUQKuDs7ri3mabTGKkgelC/EL27wfm5yDUuo7kMh0VxkfHzIkZPeG/rOsToqJjyj/bR5GalPFKCGwc781+qomZUZbtVhYhaZdsOHG/X5WfSuceR+5eTo5p12YJiYs635NtNiqTrbIsQT9Tn/seVgkYcWpwB9yNVX2ZmHUjW//uI+fLHx+ofqKNkWfk02V6f5WWhvMiHOfbB5ghV0kTvzH6Q5RLSHizODClg5izbb2bO+p77fBE/U3z0PzDj6cDp9V3Mk3Lc+IQRbhUWErkaKV3dN7Ekfu2iHCJxnFpqDMXAij4coIT273VF8x6dYUjq6ciE++uoaaSbqi/HVIsA9Ky8D5AXYI9tz9W3z5U2NUhbntvYKYVUBM41150Adb56Kpw16+wSuXhm0EOnIqF8qcWp2x8Cmum3ZPt/FbSvKIh95Ab2FMBtb8Fc8nbOW4LnYTe/kgicEnF58+0B2CLnx6EkG6Pqqzhyoo9bDPDt57/FmBUdu+Md+txAfMomvrxqAWefrUcIdEQmLdJnS+h1YiYBFiOY60xU4Ti5HelVUiRTwKMCnfVTMLsafG91SjM9xtau7CVV11EfrQp8ZUH2HCN3GM/z2AqxlMbiHfK0OKGJoMy4LzekIdji+Uel8je3laXTXV03fwWmBs2ZwcWCGrnotmv/2/JSy2DGkufgQ3WCmyXyeg7KsMsjhOyjUO33MSjj01VQaj5B1H86h24yz19/ATDkP+1C94zVSb7MdQ/AOocjDRYwX1brrKhCffwiqHZoj+l8ugBfgGR3Oq8nmIHTjKLeQTkFzmKaKVJ+OIIiOsF4PJhx6ATbc8HucjzVMQcBKIKo68uCI3XAUuVhK1KQ5iguPyHLApVbNIKwciwi9pXgNbmyQgcWGhdkmAc52gIsYE5iR+3ZlYPWfhQukqSMPrLFcm5ZKpXNIbvqRO3hSfnZVwA6O6rRFi4P8XBx2mgc+BPfQKTAEG63ujJnBaX7uIzc8m7Obr88GlbWGGU1srcfqYVjJCBZHIAuBvAYeXPUaTJL1UVYae1wlsI7qB97RB+DFw+JVY2rs0UFFjCU22uxC1lSXpChQxcBSqeIyI5icxs72cKO97ZN7NwvlumScfbpHZN01bQYowa9p+I1X8BAK3tpx3ze80FNf/lZk1HUBDMBuENzqlTTXgRcOVdYdak96POvy13TcF8gLaM2FdJ+gIobQNId9yaBLgfRhtq5Vlwp+0IXOdoTvy+ktq60qdM1/t9sD2kBxANY9QtdXpbsywQ2cqFDH9229iX5QovI3XIoZ6qdESYHwSlLAPTlMu0Qo6lOZwSRF0vYfL+nCwIFf7X/ZlcAFZU/wAzTI2Y4uzvL0XhLohrfLQlxiiuJC7TjIEFqI6Il+COoIOoakwDN1R6n+TcSMz901SbU+0Dqq6wOHwzQeQtvpjVGoe9Kx3gusjT+JAqqMLp2T6Ly1OnfXJLNtCDNydYI894GLJlHDwvPQ3SN/ZVQCC5Egv+e5gD4nk+CfTtq5GiXegbhB2bbu5u6aZHZphk8zYPSsaO/kFaGDNLY5BgvQ3Panfhzwg/jt3IlpxXXyjZOduvwrBWxPFq1Jis+ioS4v/meYThKhqW38JeLVAtWn/hp/XT6CIAiCIAiCIAiCIAiCIAiCIAiCIAiCIAiCIAij/AcZnpQmapSU9gAAAABJRU5ErkJggg==;" vertex="1" parent="tzBu8eTOmP9HdtIuSJKp-9">
          <mxGeometry x="272.5" y="247" width="35" height="35" as="geometry" />
        </mxCell>
        <mxCell id="tzBu8eTOmP9HdtIuSJKp-42" value="" style="shape=image;verticalLabelPosition=bottom;labelBackgroundColor=default;verticalAlign=top;aspect=fixed;imageAspect=0;image=data:image/png,iVBORw0KGgoAAAANSUhEUgAAAOEAAADhCAMAAAAJbSJIAAAAgVBMVEX///9ssz5qsjtwtUPs9ub2+/JnsTVosThztkllsDJiryxksDD8/vtiry3+//3v9+vf7telz43D37TZ68/n8uF6ulLz+fDN5MCTxnV/vFrU6Mn4+/ady4OGwGOOxG6+3K6y1p6RxXOt05e22KTJ4rugzIeYyHy62qlcrSHC37KDv19eEpGZAAAIGklEQVR4nO2d53biOhCA1zJIlisYm95CTfL+D3jtJDegGVESLMnkzPdvzwmLx9Jouvj3jyAIgiAIgiAIgiAIgiAIgiAIgiAIgiAIgiAIgiAu0c1nrh/BLLkfBjvXD2GQaRkyj4WTgesHMUQxlsyrEXzecf0wBhiufe79jwy2f04dd0HEvBNMliPXj9Qog0V4Lt+HjOGy5/qxGqNzkMLDVOqYuX60RuhuPa6Rr4b7qz+gjqNJAjfo2VZNFlPXD/ggxfKKfB9bNRk/s+XI9q86BQQyvm6Grh/0l8yO/iUFVJHBW+z6YX9BOp3I6xv0BJOL53PkigOygFe3avJklmPWT+7boCe4XD/PVo3f2E/lq5H+LnX96PcxXdytgCpMPoUjl+ldtPuoHLm2W450y3+zQU9wcXQtw1VyTz4kn1c7cn570xy93yogkLGt6tjZi98roIpg/RZax+3jG/QM6bdNHUdqkuJxWFK2Ka7qLRqW70PG6KVwLdgXwz5rSgFVuNeKuCpeBU0qoAKTpXtHbnotSdGAjMnCreUolq8m5asRrwd3aY5sczGL1iTcX3edyBfnZSMuzG3qBLkDdewtfxTEPyhj+GJbHTuH0IyFuIQI9zYtR3cd2VBAFc6PthLk6a40ZgGvweTEjjr2lgZctPsQcmzekev2LSsgkDHcGN6qW2lfAVUkX5kUsMNcbdATzDdp/zt+CyQMSEKSkCR0DUlIEpKEJCFJSBKShCQhSUgSkoQkYSMSGs1idCfOMonfAkYLo/1v6Uo4yQZ/E3m5SflqZv3IXcKU842NBsbei6WqGkTwg6XehXTkpHAhJxb7T+L1jztkH5ZPWu4hGu4Tm+ooItP1Cg29W6MUzcESN81DaW5HHeu6oQv5aoabB/tl74ELm7OK6KuyseFyoghRX3Rq0iR28IGtGS1sDt2Q4mhismWh43FUZ47zwJAHUPfRwPXqLaXp+iFna7hXDTUncm8DZakUX5iPnpjEE/UG+tvYK+5KWPnSTnzIwhJpx6BsNK5iyQR/hf9hgO1EwIzPkToeG+wzlWUOO2eKMf/6bksxPveROmb9hpr1BUO9wd1TG6S1LEZ10CHL0XtvYKsyuUQKuDs7ri3mabTGKkgelC/EL27wfm5yDUuo7kMh0VxkfHzIkZPeG/rOsToqJjyj/bR5GalPFKCGwc781+qomZUZbtVhYhaZdsOHG/X5WfSuceR+5eTo5p12YJiYs635NtNiqTrbIsQT9Tn/seVgkYcWpwB9yNVX2ZmHUjW//uI+fLHx+ofqKNkWfk02V6f5WWhvMiHOfbB5ghV0kTvzH6Q5RLSHizODClg5izbb2bO+p77fBE/U3z0PzDj6cDp9V3Mk3Lc+IQRbhUWErkaKV3dN7Ekfu2iHCJxnFpqDMXAij4coIT273VF8x6dYUjq6ciE++uoaaSbqi/HVIsA9Ky8D5AXYI9tz9W3z5U2NUhbntvYKYVUBM41150Adb56Kpw16+wSuXhm0EOnIqF8qcWp2x8Cmum3ZPt/FbSvKIh95Ab2FMBtb8Fc8nbOW4LnYTe/kgicEnF58+0B2CLnx6EkG6Pqqzhyoo9bDPDt57/FmBUdu+Md+txAfMomvrxqAWefrUcIdEQmLdJnS+h1YiYBFiOY60xU4Ti5HelVUiRTwKMCnfVTMLsafG91SjM9xtau7CVV11EfrQp8ZUH2HCN3GM/z2AqxlMbiHfK0OKGJoMy4LzekIdji+Uel8je3laXTXV03fwWmBs2ZwcWCGrnotmv/2/JSy2DGkufgQ3WCmyXyeg7KsMsjhOyjUO33MSjj01VQaj5B1H86h24yz19/ATDkP+1C94zVSb7MdQ/AOocjDRYwX1brrKhCffwiqHZoj+l8ugBfgGR3Oq8nmIHTjKLeQTkFzmKaKVJ+OIIiOsF4PJhx6ATbc8HucjzVMQcBKIKo68uCI3XAUuVhK1KQ5iguPyHLApVbNIKwciwi9pXgNbmyQgcWGhdkmAc52gIsYE5iR+3ZlYPWfhQukqSMPrLFcm5ZKpXNIbvqRO3hSfnZVwA6O6rRFi4P8XBx2mgc+BPfQKTAEG63ujJnBaX7uIzc8m7Obr88GlbWGGU1srcfqYVjJCBZHIAuBvAYeXPUaTJL1UVYae1wlsI7qB97RB+DFw+JVY2rs0UFFjCU22uxC1lSXpChQxcBSqeIyI5icxs72cKO97ZN7NwvlumScfbpHZN01bQYowa9p+I1X8BAK3tpx3ze80FNf/lZk1HUBDMBuENzqlTTXgRcOVdYdak96POvy13TcF8gLaM2FdJ+gIobQNId9yaBLgfRhtq5Vlwp+0IXOdoTvy+ktq60qdM1/t9sD2kBxANY9QtdXpbsywQ2cqFDH9229iX5QovI3XIoZ6qdESYHwSlLAPTlMu0Qo6lOZwSRF0vYfL+nCwIFf7X/ZlcAFZU/wAzTI2Y4uzvL0XhLohrfLQlxiiuJC7TjIEFqI6Il+COoIOoakwDN1R6n+TcSMz901SbU+0Dqq6wOHwzQeQtvpjVGoe9Kx3gusjT+JAqqMLp2T6Ly1OnfXJLNtCDNydYI894GLJlHDwvPQ3SN/ZVQCC5Egv+e5gD4nk+CfTtq5GiXegbhB2bbu5u6aZHZphk8zYPSsaO/kFaGDNLY5BgvQ3Panfhzwg/jt3IlpxXXyjZOduvwrBWxPFq1Jis+ioS4v/meYThKhqW38JeLVAtWn/hp/XT6CIAiCIAiCIAiCIAiCIAiCIAiCIAiCIAiCIAij/AcZnpQmapSU9gAAAABJRU5ErkJggg==;" vertex="1" parent="tzBu8eTOmP9HdtIuSJKp-9">
          <mxGeometry x="272.5" y="321.5" width="35" height="35" as="geometry" />
        </mxCell>
        <mxCell id="tzBu8eTOmP9HdtIuSJKp-10" value="" style="outlineConnect=0;dashed=0;verticalLabelPosition=bottom;verticalAlign=top;align=center;html=1;shape=mxgraph.aws3.route_53;fillColor=#F58536;gradientColor=none;" vertex="1" parent="tzBu8eTOmP9HdtIuSJKp-6">
          <mxGeometry x="20" y="100" width="70.5" height="85.5" as="geometry" />
        </mxCell>
        <mxCell id="tzBu8eTOmP9HdtIuSJKp-23" value="RDS&lt;div&gt;MySQL&lt;/div&gt;" style="shape=cylinder3;whiteSpace=wrap;html=1;boundedLbl=1;backgroundOutline=1;size=15;fillColor=#dae8fc;strokeColor=#6c8ebf;" vertex="1" parent="tzBu8eTOmP9HdtIuSJKp-6">
          <mxGeometry x="730" y="185.5" width="130" height="140" as="geometry" />
        </mxCell>
        <mxCell id="tzBu8eTOmP9HdtIuSJKp-45" value="S3&lt;div&gt;Image Server&lt;/div&gt;" style="shape=cylinder3;whiteSpace=wrap;html=1;boundedLbl=1;backgroundOutline=1;size=15;fillColor=#d5e8d4;strokeColor=#82b366;" vertex="1" parent="tzBu8eTOmP9HdtIuSJKp-6">
          <mxGeometry x="730" y="30" width="130" height="140" as="geometry" />
        </mxCell>
        <mxCell id="tzBu8eTOmP9HdtIuSJKp-12" value="" style="sketch=0;outlineConnect=0;fontColor=#232F3E;gradientColor=none;fillColor=#232F3D;strokeColor=none;dashed=0;verticalLabelPosition=bottom;verticalAlign=top;align=center;html=1;fontSize=12;fontStyle=0;aspect=fixed;pointerEvents=1;shape=mxgraph.aws4.user;" vertex="1" parent="1">
          <mxGeometry x="-110" y="190" width="78" height="78" as="geometry" />
        </mxCell>
        <mxCell id="tzBu8eTOmP9HdtIuSJKp-20" value="" style="endArrow=classic;html=1;rounded=0;" edge="1" parent="1" source="tzBu8eTOmP9HdtIuSJKp-12" target="tzBu8eTOmP9HdtIuSJKp-10">
          <mxGeometry width="50" height="50" relative="1" as="geometry">
            <mxPoint x="390" y="370" as="sourcePoint" />
            <mxPoint x="440" y="320" as="targetPoint" />
          </mxGeometry>
        </mxCell>
        <mxCell id="tzBu8eTOmP9HdtIuSJKp-28" value="" style="endArrow=classic;startArrow=classic;html=1;rounded=0;exitX=0.5;exitY=1;exitDx=0;exitDy=0;entryX=0.5;entryY=0;entryDx=0;entryDy=0;" edge="1" parent="1" source="tzBu8eTOmP9HdtIuSJKp-16" target="tzBu8eTOmP9HdtIuSJKp-50">
          <mxGeometry width="50" height="50" relative="1" as="geometry">
            <mxPoint x="566" y="470" as="sourcePoint" />
            <mxPoint x="577.0000000000005" y="640" as="targetPoint" />
          </mxGeometry>
        </mxCell>
        <mxCell id="tzBu8eTOmP9HdtIuSJKp-31" value="alamani-api" style="rounded=0;whiteSpace=wrap;html=1;" vertex="1" parent="1">
          <mxGeometry x="600" y="-30" width="196" height="60" as="geometry" />
        </mxCell>
        <mxCell id="tzBu8eTOmP9HdtIuSJKp-34" value="" style="shape=image;verticalLabelPosition=bottom;labelBackgroundColor=default;verticalAlign=top;aspect=fixed;imageAspect=0;image=https://velog.velcdn.com/images/bluewind8791/post/d8dba88d-6b02-4b83-b9bb-f7430b16645a/image.png;" vertex="1" parent="1">
          <mxGeometry x="-10" y="880" width="1182" height="500" as="geometry" />
        </mxCell>
        <mxCell id="tzBu8eTOmP9HdtIuSJKp-17" value="alamani-front" style="rounded=0;whiteSpace=wrap;html=1;" vertex="1" parent="1">
          <mxGeometry x="390" y="-100" width="196" height="60" as="geometry" />
        </mxCell>
        <mxCell id="tzBu8eTOmP9HdtIuSJKp-50" value="" style="shape=image;verticalLabelPosition=bottom;labelBackgroundColor=default;verticalAlign=top;aspect=fixed;imageAspect=0;image=data:image/jpeg,/9j/4AAQSkZJRgABAQAAAQABAAD/2wCEAAkGBxISEhUSEhIVFRMWFxUWFhUTFRUXGBYWFxcWFhcYFhUYHSggHRslHRgVITEiJSkrMC4uGR8zODMtNygtLisBCgoKDg0OGxAQGy0lICYtLS0vMS0vLS01Ly81LS0tLy0vLS0tLS0tLy0tLS0tLS0tLS0tLS0tLS0tLS0tLS0tLf/AABEIAOEA4QMBEQACEQEDEQH/xAAbAAEAAgMBAQAAAAAAAAAAAAAABQYDBAcBAv/EAEUQAAEDAgQCBgUIBwcFAAAAAAEAAgMEEQUSITEGQRMiUWFxgQcyc5GxIzVSYnKhssI0QkOCwdHhFBUWJTODkiRTo9Lx/8QAGwEBAAMBAQEBAAAAAAAAAAAAAAMEBQIGAQf/xAA4EQACAgECAwYDBwMDBQAAAAAAAQIDBBEhBRIxEyJBUWFxMjOBFCM0NZGhwRWCsdHh8CRCUmLx/9oADAMBAAIRAxEAPwDGsI/OQgCAIAgCAIAgCAIAgCAIAgCAIAgCAIAgCAIAgCAIAgCAIAgCAIAgCAIAgCAIAgCAIAgCAIAgCAIAgCAIAgCAIAgCAIAgCAIAgCAIAgCAIAgCAIAgCAIAgCAIAgCAIAgCAIAgCAIAgCAIAgCAIAgCAIAgCAIAgCAIAgCAICRwjBZqk2iZpzedGjz/AIBS10yn0LeNhW5D7i28yUxbgyohbmZaVvPICHD93mPBS2YsorVblzJ4PdVHmj3vYrZCqmQ01szxAEAQBAEAQBAEAQBAEAQBAEAQBAEAQBAEAQBAEAQGejpJJXBkbC5x5AfHsC6jCUnoiWqmdsuWC1Zd8F4IYwdJVOBtrkBs0fadzV6vFS3mehxeDQh3739PAy4vxlDAOipWtcRoCBaNvhbfyXVmTGG0STJ4tVSuSlav9iNwfjqRptUDO0n1mgBzb92xCiry2vjKeLxuaely1XmierMIo8Qb0kbgH/TZa9+x7f56qxKuu5ao07cXGzo80evmv5KPjfDs9MbvbmZykbqPPs81RsolD2PO5fDrsfdrVeaIhQFAIAgCAIAgCAIAgCAIAgCAIAgCAIAgCAIAgPWtJNgLk7Aak+AX1LU+qLk9EWzAuCZJLPnJjZ9H9c/+qt1Yre8jbxODTn3rdl5eJYKvFqPD29HE0F/0Gam/a9/81YlZXStEaluVi4MeSC38l/JSMa4hnqTZ7srOUbdG+fb5qlZfKfsedyuI3ZGzei8kR9NSvkJEbHPIFyGtJsO+yijBy6Iq10zs+BNmIi2h0PYV8a0OGmnozNRVkkLs8byx3aD8RzC+xnKL1RJTfZVLmg9C84Lxux46OqaGk6ZwLsP2hy+Cv15Se0z0WJxmFncvWnr4GXGODYZh0lM4MJ1sNY3eFtvJfbMaM94neVwiq5c9L0f7FFxHDpYHZJWFp5dh8DsVQnXKD0Z5y/GsolyzWhqLggCAIAgCAIAgCAIAgCAIAgCAIAgCAICawHhqaq6zerHexe7bvyjmVPVRKe/gaGHw23J36R8y6w0dFhzMziM/0navd9lvLyV5RrpWp6CNWJgR1fX9yr47xlNNdsV4o+49cjvPLy96q25UpbR2MjM4xZb3a+6v3K00EmwuSTsNSSfiVV3bMdJyfmy04TweS3pat3QxDWxIDiO87N+Kt14u3NPZG1jcIenaZD5UbVVxbDTgRUUTcoOrnAgO7bcz4ldSyYw2rRNZxWqjuY0dvM3KY0mKA5onRzgauaPzDQ+B1Ui7O9dNyxX9m4jHeOkvP/crmN8KT093AdJH9Jg1A+s3cKrZjShut0ZOXwq6jdbr0IFVzMJLB8cnpj8m7q82O1afLl4hS13Sh0LmLnXY77r28i9YdxFS1reima1rj+pJaxP1Hf8Awq/C6Fq0Z6OjPx8uPJYtH5P+CIxzgZzbvpjmG/RuOv7rufmobcTxgUcvgrXeo/T/AEKY9pBIIsQSCDuCNwVSa02Z5+UXF6M+V8PgQBAEAQBAEAQBAEAQBAEAQBAEB0vAJnMwvO02c1kpB7CHPstSp6U6ryPYYknDAUl10ZzmondI4ve4ucdy43KzXJy3Z5KyyVkuab1ZmwvD31EjYox1jzOzRzJ7l9rg5y0RJjY88ixQgXGWekwwZWN6aptqTy8T+qO4aq65V0bLdm9KeNw5csVzTKvX4lUVkgDi55J6sbAbDwaPiVVlZO16GPdk35c9Hv6InMP4RZG3pq6QMYNcgOp7nO7e4KeGMormsZo0cJhXHtMmWi8jzEeL2sb0VFGI2DTOQL+LW/xKTyUly1oX8WjCPZ4y0XmZuD6qve64u+Em7nTE278jt7/cuseVrfp6knDLcyb16x9f4NzHMPw+eUsErIpzzb6pPY79W/3ruyFU3proyfLx8K6fLzJS9Cp4xw/PTavbdnJ7NW+fZ5qnZRKBh5XD7sfdrVeaIpQlI6H6Oa6SRsrHvLmsyZc2pF81xfe2gWliTck0z1XBL7LISUnrp0KZj/6VP7WT8RVK/wCYzAz/AMTP3I9RFQIAgCAIAgCAIAgCAIAgCAIAgPUB0fCPmk+zm/E9adfyPoeux/y7+1nN1mHkS68MkUtDNV2Gd12tv3HK0f8AIlX6Pu6nM9FgaY+HK/xZUoInzSBou6SR3PmTuSfvVNJzlp4swoRnfZp1bZdauqhwuMRRND6lwu5x5d57uxquylGiOi6nobbauG1qEFrNlVvU1strukefJrR8GhVe/dIxtcjNs06v/BYWYPSUID6t4ll3ETdR/wAefidFZVVdS1nuzUjiYuGua96y8iLxriuafqM+Si2DGbkdhcPgFDZkyntHZFLJ4pbd3Id2PkjJg3CEso6SY9DFuS7RxHgdvEr7XjN7y2R3i8JssXPa+WJccIrKd8UsEBc9kTLFziXA5g7YnfbwV2EoNOMfA3se2mdcqq3qkjlLdgslnin1L36Mf2/+3+dX8Poz0nAOk/oVXH/0qf2sn4iql/zGY2f+Jn7keoioEAQBAEAQBAEAQBAEAQBAEAQHqA6PhHzSfZzfietOv5H0PXY/5d/azm6zDyJcZHXwYdzwP/KVef4c35PXhf1/kw+jqnDqhzz+owkeLja/uuuMNd5si4HWna5PwRX8VqXSzSPdqXPPxsB7rBQWScptmbk2StulJ+LLdVTDDaVsbLf2mUXc76PafK9h71bk1RXourNyya4fjqEPjkVOgopaqXI27nuN3Ocdhzc4qpGMrJaGJTTblW6LdstbjR4bpbp6keHVPwb95Vv7uj1ZtN4vD1p8UytYxjs9SflHdXkxujR5cz3lVrLpT6mRlZ92Q+89vJFh9HnqVP2W/B6sYfSRqcE+Gz2KUzYKkzz76l79GP7f/b/Or+H0Z6TgHSf0Krj/AOlT+1k/EVUv+YzGz/xM/cj1EVAgCAIAgCAIAgCAIAgCAIAgCA9QHR8I+aT7Ob8T1p1/I+h67H/Lv7Wc3WYeRLlwa5tRBNRP5gvaezUfB1j5q9jNTg62eg4W1fRPGl7khwVgk9PLN0rLDKAHAgh2p2XePVKDepZ4XhW485qa/wBynUEX/VsaR+2aCPB+qpwX3iT8zCpj/wBUov8A8v5JLj+QmscDs1jAO4Wv8Spct/eFrjUm8nT0RIYa/wDsWHmcaTTmzT2DXL9wLvNSQ+6p5vFluhrDwu1XxSKa5xJJJuTqSdye0qk3qefcnJ6sksHwOepPyberze7Ro8+Z7gpa6ZT6FvFwbsh91beZdWUEeH0k72O6R5Aa43Fs3qgWGwGZXVBU1to9DGiGDjTlF6s5uAsw8kXr0Y/t/wDb/OtDD6M9JwDpP6FVx/8ASp/ayfiKqX/MZjZ/4mfuR6iKgQBAEAQBAEAQBAEAQBAEAQBAeoDo+EfNJ9nN+J606/kfQ9dj/l39rObrMPIls9HH6S/2R/ExXMP4n7G5wL5svYwf4tqo5bGTOxkjrtIb1mgkWva+y5+0zUt+hw+K3126N6pNk+zDKapmjrIZmts5r5GG2411F+qe1WOzhOSsizSWPRkWxya5aeLRB+kGkLagS7ska2xG12ixF/Cx81Blx73MZvG6mrlZ4NG/jlHJLRUTImFziG6D7G55Ad5UlsXKuKRbzKZ24lMYLX/4fFNw3T0rRLXSAnlE3Yns7XfBfI0QrXNYzivh1GNHtMl7+X/Opo4xxfJIOjgHQxDQZbBxHiPVHh71xZkt7R2RWyuLTmuSlcsTapT/AJRL7T87F1H8Oyet68Ml7/yVBUjAJTBMWqKfP0Avmtm6hdte3huVPVbOGvKi/h5V9CfZLXX01NCrlc97nv8AXc4udpbU6nTkopycpasqXTlOxyn1ZhXJGEAQBAEAQBAEAQBAEAQBAEAQHqA6PhHzSfZzfietOv5H0PXY/wCX/wBrK1gnCM0wzy/Ixb3d6xHc07eJVarGlLeWyMfF4TZb3rO7EtvDc1GyR0FKMzg0ufJvexAtm578tFbpdafLA3MKWLGTqp6pbspmD0LJ64xSAlrnzXsbbZiNVSrgp26P1MDGphdmOE+mrMvE3CjqUdI1wfFcC50c2+1xz8QurqHWtU9jvP4ZLGXPF6xMuDcQRmIUtXGZY7gMcPWbyA3G3aCvtVya5JrU7xM+EoKi9arwJ/inHXUTWU8DAOoLOOuVo0AA5nvKnvu7LSMTS4hnPEiqql4HP6mpfI4vkcXOO5cblZ8pOT1Z5iy2dkuab1ZhXJGXCk+Z5fafnYrsfw7N6r8sl7mjgHCklVE6QPDBezcwJzW38By96jqxnOOupWwuFTya3PXTyLxwxgoo4i1zwXOdmcRoNgABdXqauzjoehwMRYtfK3uyJx/g0zzmVkrWh9swLSbEAC4sdb2UVuNzy5kynmcI7e3tIy016lLxzC3U0zona21a61szTsVRtrdctGefzMWWPY4Mj1GVQgCAIAgCAIAgCAIAgCAIAgPUB1LgWdrqNjQQS3OHDmLucRceBC1cZp1pHs+FTjLGik+hW+Nm11z0msF9Oivkt9cb38dFXye18enoZfFVl6974PT+SJ4UxhtLNne0lrmlpy7i5Bvbnsoce1Vy1ZQ4bmRxrOaS2excMHwandUNq6aUFt3F7DrYuB25jU7FXa6oOfPFm9jYlMrlkUy231RsekD9Dd9pn4gmV8tnfGfwr90czp/Xb9pvxCzY/EjyVPzI+6LT6SP9eP2f5irOZ8aNfjnzY+xUVUMQsOC8JzTDO/5KLfM/cjuafiVZrxpS3eyNXF4VZb3p92Ju45ilLFTGjprvBILn3uLggnXmTblopLbIRh2cCxmZWPVQ8anf1JD0b1crg+N1zEy2UkbOJ1aD99lJiSk1o+ha4HbbKLg/hXQgONqqR9VI15OVhAY3kBYG4Hf2qvkylz6GZxa2yWQ4y6LoWf0c1Uj4XteSWscAwnlcXLb9g096s4kpOO5scEtsnU1LdJ7FP4nrJZKiTpbgtcWtba2VoOlh3jW/eqd8pOb1MHiNtll77Tw6exEqEohAEAQBAEAQBAEAQBAEAQBAEBnpKp8Tg+N5Y4c2n49oXUZuL1RJVdOqXNB6Mu+CccNdZlU0AnTpAOqftN5K9XlJ7TPRYnGYz7l6+psYvwfBUDpaZzWOOoy6xu923l7l1ZjRnvElyeFU3rnpej/YpksNTRS3OaJ/Jw9Vw7js4dyptWVMwZQyMKfin+zLLScUw1UfQVrct7ddpIbcbE82n7lZjkRsXLM1quJ1ZMOyyVp6mjiHCEkbmyQO6aLM03bbMBcchoR3j3LiWM0047ogt4TKuanU+aOqJXjHBZqmpjETdBHq86Nb1jue3uCkyKZWTWha4lhW5F0VBbadTXEFFh2rz09QOQtZp8Nm+JuV80qp67s4UMTAWsu9P/n6EDi2PVFW7Ib5SerFHex8ebiq87p2PQzcjOvypcq6eSNiXhCoZTumfYFoB6Pd2XmTbmOxdPFkoczJJcIujS7JdV4EnwpxXFBAY5QbtJLMjb5gdde8HtUtGRGMNJFvh3FK6aeSzw6Fhjgo8RYJSzNY5bm7XA75SQdd1Y0ruWuhqxhjZ8VZpqfFTj1HROFOAW23DG3Db69Y8yfMr5K2urunNmbjYbVXT2KNxViwqZy9o6jRlabWJA5nnuqN9inLVdDznEspZF3NHouhDKAzwgCAIAgCAIAgCAIAgCAIAgCAIAgJHCMampjeJ+nNh1afEfxClrulDoW8bNtx33Ht5F6wziWlrG9FO1rXHTI+xa4/Vd2+4q/C+Fi0kejx+I4+XHksWj8n/BF45wMRd9Mbjfo3HX913PwPvUNuJ4wKeXwX/uo/T/Qr+G4xU0by0Eix60Twbe47eIUELZ1PQzKMvIxJcv7M38Y40nmGVg6Fttcpu4/vch4LuzKlLZbFnJ4zbauWHdRiwPhOeos53ycZ1zOHWd9lv8SvleNKe72OMThV175p7L1LgG0WGs5ZyPtSP/kPcFc+7pRu6YvD4+v7sqOO8XzT3az5KPsaesR9Z38AqluTKWy2Rh5nFrbu7DaJXFVMkksKxyemDhE8AONyC0HXbmpYXThtEt42ddjpqt9TUrap8r3SPN3uNybW5W28lxKTk9WQW2ytm5z6swLkjCAIAgCAIAgCAIAgCAIAgCAIAgCAIAgCAsGB8WT09mk9JH9Fx1A+q7+BVmrJlDZ7o1MTittG0t0XFstFiTLG2cDY9WRnh2j3hXNa7kbyliZ8NH1/dGOh4cpKMGWVwcQdHy2s3ss3a6+Rorq3ZzTw/GxFzzf1ZD45xy512Uwyj/uOGv7reXmobcvwgUMvjTfdo/Ups0rnuLnOLnHcuNyfNUm23qzAnOU3zSerPhfDkIAgCAIAgCAIAgCAIAgCAIAgCAIAgCAIAgCAIAgCA+o3lpDmkgjUEGxHgV9TaeqPsZyi9YvRmetrpZiDLI55G2Y7eAX2U5S6sktyLLfjk2ay5IggCAIAgCAIAgCAIAgCAIAgCAIAgCAIDLTU7pHtYwZnONgBzK6jFyeiO665WSUIrdlsZ6P5stzMwO7LEj3/ANFbWG9OptrgNnLvNalZxOgfBI6J9szbeqbjXUKrODg9GZGRjyoscJdTUXBAEAQBAEAQHrQSbAXJ0AHMoEm3ojJNTvZ67HNvtmaRfwuunFrqdzrnD4k17m/hGByVAc/M2ONujpJDZt+wdpUldLmteiLWLgzvTlqlFeLPvFsBfCwSh7JYibZ4zcA9hHJLKXFap6o6ycCVMedNSj5ojn0zwwSFpDHEhriNCRuAfIqNxaWpTdU1BTa2ZhXJwEAQBAEAQBAEAQBAEAQBAEAQE3wbVMjq2OkIDSHNudgSLC/w81YxpJWbmjwq2FeSnMtvFHD9RPIJ4JtQBZmYttbm1w01Vu6qcnzRZuZ+FddPtKp/TUp1PhkstWIJy5kjycznC5vlLr9+ypquUrOWXUwYYtluT2VuzZPjgZjX5X1IF/UFgHOPPQlT/ZFro2af9EgpaSn7GH/A5a93SztZELZX6AuJ5WJsCvn2TR7vYj/ovLN889I+Bo8T8MGla2Rr88bja5FiDuPEFR3Y/ItUVs/hjxkpxeqN/D+CR0QkqZuiuL2FurfbM52l+5SQxVprJlmngy7PnuloJOB7MkkFQHNaHOaWtBzAC+pvovv2Raa6nT4IuVyU9vA1cH4SNRTCdslnHMAwt00cW6uv3LiGNzw5tSDG4T29CsUt2bUfDMcVRTtFQHEuLnHq2Doy1waNeey7WPGM1uTQ4bXXfBKevj+hK8f4a2RglMga6NrrM0u+5G2qkyq1Ja69C5xjGjZDtHLRpdPMr+EmOopP7IZRFK2QvZn0bJfkT2/0UFek6+TXRmbjOGRjfZ+blknqvUicTwyop+pK1zWk3Fjdjj2gjS/3qGdc4bPoUcjGvx+7Pp+xZMRpIP7uhHT6NL3MOQ9d/WJZ3a3F+5WZxh2K3NW+qn7DDWfqvfyIaiwNnRCepmEMbvUGXM9/eB2KGNK5eab0KNODHs1bdLlT6ebFbgbOidNTTCaNnrjLlezvI7ElSuXmg9Rdgx7N20S5kuvmjJRYBGadlTLUCNjnOaRludCQA225Nl9jTFwU5PQ7qwK3QrrJ6JmOjwNkjpXibLTRmxmc3V22gb2/0XyNKk29dkcVYMLJSlzaQXiz7mwKJ8b5KWfpTGLvY5pa7L2jtX10xabg9TqeDXODnRPm06ogVWMsIAgCAIAgCAIAgCAkMDwl9VJ0bCBoSXHYAf1spaq3ZLRFrExJZNnJEs/DeFYhBO1puIQevdwLC36ovv5BWqa7YS0fQ2sHGzabkn8PjvsSGLSNOKUoFszWuzebXEA/f71JNrtolnIlF59aXXR6kJxq4/3gzXYQ27utyUOQ/vkZ/E2/t0fp/k3fSc7/AEBy+UNu/qrrNfQn483pBG3jkoGH07nagGnLu8CxKksf3Sb9CzlSSw65S/8AU++OsPlqI4nQAvaLktbzzAZXAc+fvTJhKcVynzi1Fl9cXVuhw5h0sFDMJQWlwkc1h3aMn3XOq+0wlGtqR1gUW04slZ67eRhwWQtwhzmmxDZrEbjrO2XMHpRr7kWNJx4a2vJ/5KRhI+Xh9rF+Nqo1fGvc89i/Ph7r/JavSb/qQ/Zf8QrOb1Rscf8Ajh7MrlRg72wR1AIex9wcoJyEcnfeq7qagpIy54c1TG5bp+XgTWGPecPqenuYxl6LPf1/qk62vl+9WIN9jLm6eBoUObwbO16eGvma+J/NtL7ST4vXE/kR9yG/8BX7s+uLWF8dNMzWHoWtBGzXDcHsP8l9yE2otdNDvicXOFdkPh0/Q94RYWMqZni0PQuaSdnOOwHaf5pjppSb6aDhkXCFlkvh0/UxYgf8tpfayfmXyfyEc3/gK/dkhhdQBhxtCybJKTIx19AdnWHkpK5aU7LUs41iWBtFS0e6MeD4s5xe6noYQWsdncCWgN5gk6eXcvldjevLFHONlSlzOqlLbdlSVIwWEAQBAEAQBAEAQBAZaeofG4PY4tcNi02K6jJxeqO67JVy5oPRk2eMqy1ukHjkbdT/AGqzQ0XxjK001/YiYMQlZL0weekuTmOpuRbW/cVCrJKXN4lGGTZGztU+8e12IyTSCWR13i2tgPV1GgSVkpPmZ9tybLbFZJ7mTFMXmqMvTOzZb20Ate19vBfZ2yn8R1kZduRp2j10PqpxqeSJsD33jblsLD9XbVJWylHlfQ+2Zt1laqk9kZsN4kqYG5I5OqNg4BwHhfZdwyJwWiJaOJZFMeWL29T08TVRDwZbiS+a4HMWsNNBbsT7RZ5j+p5O/e6mvFjU7YTTh9oiCC2w2cbnXdcq2Sjy+BFHNujV2KfdNKGQtcHDdpDh4g3CjT0eqK8JOElJdUbeKYtNUFpldmLQQNANDvsu52Sn8RNkZVmQ07HrofeF41PT3ET7A7tIBaT22PNfa7pQ6HWPm3UbQe3keYpjM9RbpX3A2aAA0d9hzSy2U+oyMy2/ab28jDLXyOiZCT8mwktFhoTe+vmVy5tx5fAjlfOVarfRGfDManpwRG/qndrgHNv22K6hdKHQkx826haRe3kxieNT1AAkf1Rs1oDW37bBJ3SnsxkZt160k9vJGvLXPdEyEnqMJc0WGhO+vmuXNuPL4Ecsicq1U3sj6w3EpYHZonlpOh5gjsIO6QslB90+0ZNlEtYM2sQ4hqJm5HvAYd2saGg+Nt13O+cloTXcQutjyt6L02IpQlIIAgCAIAgCAIAgCAIAgCAIAgCAIAgCAIAgCAIAgCAIAgCAIAgCAIAgCAIAgCAIAgCAIAgCAIAgCAIAgCAIAgCAIAgCAIAgCAIAgCAIAgCAIAgCAIAgCAIAgCAIAgCAIAgCAIAgCAIAgCAIAgCAIAgCAIAgCAIAgCAIAgCAIAgCAIAgCAIAgCAIAgCAIAgCAIAgCAIAgCAIAgCAIAgCAIAgCAIAgCAIAgCAIAgCAIAgCAIAgCAIAgCAIAgCAIAgCAIAgCAIAgCAIAgCAIAgCAIAgCAIAgCAIAgCAIAgCAIAgCAIAgCAIAgCAIAgCAIAgCAIAgCAIAgCAIAgCAIAgCAIAgCA/9k=;" vertex="1" parent="1">
          <mxGeometry x="500" y="643" width="155" height="155" as="geometry" />
        </mxCell>
        <mxCell id="tzBu8eTOmP9HdtIuSJKp-53" value="" style="endArrow=classic;startArrow=classic;html=1;rounded=0;fontFamily=Helvetica;fontSize=12;fontColor=default;exitX=1;exitY=0.5;exitDx=0;exitDy=0;entryX=0.5;entryY=0;entryDx=0;entryDy=0;" edge="1" parent="1" source="tzBu8eTOmP9HdtIuSJKp-19" target="tzBu8eTOmP9HdtIuSJKp-54">
          <mxGeometry width="50" height="50" relative="1" as="geometry">
            <mxPoint x="630" y="560" as="sourcePoint" />
            <mxPoint x="920" y="640" as="targetPoint" />
          </mxGeometry>
        </mxCell>
        <mxCell id="tzBu8eTOmP9HdtIuSJKp-54" value="발송 딜러사&amp;nbsp;" style="rounded=0;whiteSpace=wrap;html=1;" vertex="1" parent="1">
          <mxGeometry x="770" y="650" width="230" height="150" as="geometry" />
        </mxCell>
      </root>
    </mxGraphModel>
  </diagram>
</mxfile>
